<svg class="mym-hero-mountains" viewBox="0 0 4197 300" preserveAspectRatio="xMidYMax meet" aria-hidden="true" xmlns="http://www.w3.org/2000/svg">
	<g class="mym-mtn-schweiz">
	<path d="M-192.0,300 L-192.0,168.7 L-180.0,167.8 L-168.0,165.9 L-156.0,164.0 L-144.0,163.0 L-132.0,163.0 L-120.0,163.0 L-108.0,164.0 L-96.0,165.9 L-84.0,166.8 L-72.0,168.7 L-60.0,169.7 L-48.0,170.7 L-36.0,170.7 L-24.0,169.7 L-12.0,167.8 L0.0,165.9 L12.0,165.9 L24.0,165.9 L36.0,165.9 L48.0,167.8 L60.0,169.7 L72.0,170.7 L84.0,170.7 L96.0,170.7 L108.0,170.7 L120.0,170.7 L132.0,170.7 L144.0,170.7 L156.0,169.7 L168.0,169.7 L180.0,169.7 L192.0,169.7 L204.0,169.7 L216.0,169.7 L228.0,169.7 L240.0,168.7 L252.0,167.8 L264.0,167.8 L276.0,167.8 L288.0,167.8 L300.0,167.8 L312.0,167.8 L324.0,168.7 L336.0,168.7 L348.0,168.7 L360.0,168.7 L372.0,168.7 L384.0,167.8 L396.0,167.8 L408.0,167.8 L420.0,167.8 L432.0,167.8 L444.0,167.8 L456.0,167.8 L468.0,167.8 L480.0,167.8 L492.0,167.8 L504.0,167.8 L516.0,166.8 L528.0,166.8 L540.0,165.9 L552.0,165.9 L564.0,165.9 L576.0,165.9 L588.0,165.9 L600.0,165.9 L612.0,165.9 L624.0,165.9 L636.0,166.8 L648.0,166.8 L660.0,166.8 L672.0,166.8 L684.0,167.8 L696.0,167.8 L708.0,167.8 L720.0,168.7 L732.0,168.7 L744.0,169.7 L756.0,169.7 L768.0,169.7 L780.0,169.7 L792.0,168.7 L804.0,168.7 L816.0,168.7 L828.0,168.7 L840.0,168.7 L852.0,168.7 L864.0,169.7 L876.0,169.7 L888.0,169.7 L900.0,169.7 L912.0,167.8 L924.0,166.8 L936.0,166.8 L948.0,166.8 L960.0,166.8 L972.0,165.9 L984.0,166.8 L996.0,166.8 L1008.0,167.8 L1020.0,168.7 L1032.0,169.7 L1044.0,171.6 L1056.0,172.6 L1068.0,172.6 L1080.0,172.6 L1092.0,171.6 L1104.0,170.7 L1116.0,169.7 L1128.0,169.7 L1140.0,168.7 L1152.0,168.7 L1164.0,167.8 L1176.0,168.7 L1188.0,168.7 L1200.0,167.8 L1212.0,167.8 L1224.0,167.8 L1236.0,165.9 L1248.0,161.1 L1260.0,159.2 L1272.0,159.2 L1284.0,159.2 L1296.0,159.2 L1308.0,159.2 L1320.0,159.2 L1332.0,159.2 L1344.0,159.2 L1356.0,159.2 L1368.0,159.2 L1380.0,159.2 L1392.0,158.2 L1404.0,157.3 L1416.0,156.3 L1428.0,156.3 L1440.0,156.3 L1452.0,158.2 L1464.0,158.2 L1476.0,158.2 L1488.0,157.3 L1500.0,157.3 L1512.0,157.3 L1524.0,157.3 L1536.0,157.3 L1548.0,155.4 L1560.0,155.4 L1572.0,155.4 L1584.0,155.4 L1596.0,156.3 L1608.0,157.3 L1620.0,157.3 L1632.0,159.2 L1644.0,159.2 L1656.0,160.1 L1668.0,160.1 L1680.0,160.1 L1692.0,160.1 L1704.0,159.2 L1716.0,159.2 L1728.0,158.2 L1740.0,157.3 L1752.0,157.3 L1764.0,156.3 L1776.0,156.3 L1788.0,156.3 L1800.0,154.4 L1812.0,153.4 L1824.0,150.6 L1836.0,148.7 L1848.0,148.7 L1860.0,148.7 L1872.0,146.8 L1884.0,145.8 L1896.0,145.8 L1908.0,145.8 L1920.0,146.8 L1932.0,148.7 L1944.0,148.7 L1956.0,149.6 L1968.0,149.6 L1980.0,149.6 L1992.0,149.6 L2004.0,149.6 L2016.0,149.6 L2028.0,147.7 L2040.0,145.8 L2052.0,143.9 L2064.0,143.9 L2076.0,143.9 L2088.0,143.9 L2100.0,143.9 L2112.0,144.8 L2124.0,145.8 L2136.0,145.8 L2148.0,145.8 L2160.0,145.8 L2172.0,143.9 L2184.0,141.0 L2196.0,141.0 L2208.0,141.0 L2220.0,141.0 L2232.0,141.0 L2244.0,141.0 L2256.0,142.0 L2268.0,142.0 L2280.0,142.0 L2292.0,142.9 L2304.0,142.9 L2316.0,142.9 L2328.0,143.9 L2340.0,143.9 L2352.0,144.8 L2364.0,144.8 L2376.0,144.8 L2388.0,144.8 L2400.0,145.8 L2412.0,145.8 L2424.0,145.8 L2436.0,144.8 L2448.0,144.8 L2460.0,144.8 L2472.0,143.9 L2484.0,143.9 L2496.0,143.9 L2508.0,143.9 L2520.0,143.9 L2532.0,144.8 L2544.0,145.8 L2556.0,146.8 L2568.0,145.8 L2580.0,144.8 L2592.0,144.8 L2604.0,144.8 L2616.0,144.8 L2628.0,142.9 L2640.0,140.1 L2652.0,140.1 L2664.0,140.1 L2676.0,141.0 L2688.0,141.0 L2700.0,141.0 L2712.0,137.2 L2724.0,132.4 L2736.0,130.5 L2748.0,130.5 L2760.0,130.5 L2772.0,130.5 L2784.0,131.5 L2796.0,132.4 L2808.0,133.4 L2820.0,133.4 L2832.0,133.4 L2844.0,134.3 L2856.0,136.2 L2868.0,137.2 L2880.0,138.2 L2892.0,138.2 L2904.0,139.1 L2916.0,139.1 L2928.0,138.2 L2940.0,138.2 L2952.0,136.2 L2964.0,134.3 L2976.0,134.3 L2988.0,134.3 L3000.0,134.3 L3012.0,135.3 L3024.0,136.2 L3036.0,136.2 L3048.0,136.2 L3060.0,136.2 L3072.0,137.2 L3084.0,137.2 L3096.0,137.2 L3108.0,135.3 L3120.0,134.3 L3132.0,133.4 L3144.0,133.4 L3156.0,132.4 L3168.0,132.4 L3180.0,126.7 L3192.0,124.8 L3204.0,124.8 L3216.0,124.8 L3228.0,124.8 L3240.0,124.8 L3252.0,124.8 L3264.0,125.7 L3276.0,126.7 L3288.0,126.7 L3300.0,129.6 L3312.0,130.5 L3324.0,130.5 L3336.0,130.5 L3348.0,125.7 L3360.0,123.8 L3372.0,123.8 L3384.0,123.8 L3396.0,125.7 L3408.0,125.7 L3420.0,125.7 L3432.0,124.8 L3444.0,123.8 L3456.0,123.8 L3468.0,121.0 L3480.0,118.1 L3492.0,115.2 L3504.0,111.4 L3516.0,107.6 L3528.0,105.7 L3540.0,105.7 L3552.0,106.6 L3564.0,111.4 L3576.0,113.3 L3588.0,113.3 L3600.0,113.3 L3612.0,112.3 L3624.0,110.4 L3636.0,110.4 L3648.0,110.4 L3660.0,115.2 L3672.0,118.1 L3684.0,121.0 L3696.0,122.9 L3708.0,124.8 L3720.0,124.8 L3732.0,124.8 L3744.0,124.8 L3756.0,121.9 L3768.0,119.0 L3780.0,117.1 L3792.0,114.3 L3804.0,111.4 L3816.0,108.5 L3828.0,102.8 L3840.0,98.0 L3852.0,98.0 L3864.0,98.0 L3876.0,101.8 L3888.0,108.5 L3900.0,115.2 L3912.0,117.1 L3924.0,117.1 L3936.0,118.1 L3948.0,118.1 L3960.0,120.0 L3972.0,120.0 L3984.0,120.0 L3996.0,120.0 L4008.0,120.0 L4020.0,120.0 L4032.0,119.0 L4044.0,119.0 L4056.0,119.0 L4068.0,118.1 L4080.0,118.1 L4092.0,117.1 L4104.0,115.2 L4116.0,112.3 L4128.0,103.7 L4140.0,101.8 L4152.0,98.0 L4164.0,96.1 L4176.0,94.2 L4188.0,93.2 L4200.0,87.5 L4212.0,84.6 L4224.0,84.6 L4236.0,84.6 L4248.0,88.5 L4260.0,92.3 L4272.0,92.3 L4284.0,92.3 L4296.0,92.3 L4308.0,91.3 L4320.0,91.3 L4332.0,90.4 L4344.0,89.4 L4356.0,86.5 L4368.0,80.8 L4380.0,80.8 L4392.0,80.8 L4404.0,82.7 L4416.0,88.5 L4428.0,91.3 L4440.0,95.1 L4452.0,99.0 L4464.0,99.9 L4476.0,99.9 L4488.0,99.9 L4500.0,99.9 L4512.0,99.0 L4524.0,98.0 L4536.0,96.1 L4548.0,91.3 L4560.0,87.5 L4572.0,85.6 L4584.0,81.8 L4596.0,80.8 L4608.0,77.9 L4620.0,77.0 L4632.0,77.0 L4644.0,77.9 L4656.0,82.7 L4668.0,85.6 L4680.0,93.2 L4692.0,95.1 L4704.0,95.1 L4716.0,95.1 L4728.0,92.3 L4740.0,89.4 L4752.0,89.4 L4764.0,88.5 L4776.0,88.5 L4788.0,88.5 L4800.0,88.5 L4812.0,88.5 L4824.0,88.5 L4836.0,87.5 L4848.0,87.5 L4860.0,87.5 L4872.0,88.5 L4884.0,88.5 L4896.0,90.4 L4908.0,91.3 L4920.0,91.3 L4932.0,91.3 L4944.0,89.4 L4956.0,88.5 L4968.0,87.5 L4980.0,87.5 L4992.0,87.5 L5004.0,88.5 L5016.0,90.4 L5028.0,91.3 L5040.0,92.3 L5052.0,93.2 L5064.0,95.1 L5076.0,96.1 L5088.0,96.1 L5100.0,96.1 L5112.0,95.1 L5124.0,94.2 L5136.0,94.2 L5148.0,94.2 L5160.0,96.1 L5172.0,98.0 L5184.0,99.0 L5196.0,99.0 L5208.0,99.0 L5220.0,98.0 L5232.0,97.1 L5244.0,97.1 L5256.0,97.1 L5268.0,97.1 L5280.0,95.1 L5292.0,89.4 L5304.0,88.5 L5316.0,87.5 L5328.0,81.8 L5340.0,81.8 L5352.0,81.8 L5364.0,83.7 L5376.0,88.5 L5388.0,88.5 L5400.0,88.5 L5412.0,88.5 L5424.0,88.5 L5436.0,87.5 L5448.0,84.6 L5460.0,80.8 L5472.0,80.8 L5484.0,80.8 L5496.0,79.9 L5508.0,79.9 L5520.0,78.9 L5532.0,77.9 L5544.0,76.0 L5556.0,76.0 L5568.0,76.0 L5580.0,77.9 L5592.0,79.9 L5604.0,79.9 L5616.0,80.8 L5628.0,80.8 L5640.0,80.8 L5652.0,79.9 L5664.0,79.9 L5676.0,77.9 L5688.0,74.1 L5700.0,71.2 L5712.0,71.2 L5724.0,71.2 L5736.0,71.2 L5748.0,71.2 L5760.0,73.2 L5772.0,77.0 L5784.0,79.9 L5796.0,79.9 L5808.0,79.9 L5820.0,77.9 L5832.0,68.4 L5844.0,68.4 L5856.0,68.4 L5868.0,72.2 L5880.0,77.0 L5892.0,77.9 L5904.0,77.9 L5916.0,76.0 L5928.0,63.6 L5940.0,58.8 L5952.0,57.9 L5964.0,57.9 L5976.0,57.9 L5988.0,61.7 L6000.0,61.7 L6012.0,62.6 L6024.0,65.5 L6036.0,69.3 L6048.0,69.3 L6060.0,69.3 L6072.0,69.3 L6084.0,69.3 L6096.0,68.4 L6108.0,68.4 L6120.0,68.4 L6132.0,64.6 L6144.0,61.7 L6156.0,57.9 L6168.0,56.0 L6180.0,56.0 L6192.0,56.0 L6204.0,57.9 L6216.0,57.9 L6228.0,57.9 L6240.0,56.9 L6252.0,56.9 L6264.0,56.0 L6276.0,56.0 L6288.0,56.0 L6300.0,56.9 L6312.0,59.8 L6324.0,61.7 L6336.0,61.7 L6348.0,61.7 L6360.0,56.9 L6372.0,55.0 L6384.0,55.0 L6396.0,55.0 L6408.0,58.8 L6420.0,59.8 L6432.0,60.7 L6444.0,60.7 L6456.0,61.7 L6468.0,61.7 L6480.0,61.7 L6492.0,62.6 L6504.0,62.6 L6516.0,63.6 L6528.0,64.6 L6540.0,65.5 L6552.0,65.5 L6564.0,65.5 L6576.0,65.5 L6588.0,65.5 L6600.0,65.5 L6612.0,65.5 L6624.0,65.5 L6636.0,66.5 L6648.0,68.4 L6660.0,70.3 L6672.0,70.3 L6684.0,70.3 L6696.0,69.3 L6708.0,68.4 L6720.0,68.4 L6732.0,68.4 L6744.0,69.3 L6756.0,72.2 L6768.0,74.1 L6780.0,77.0 L6792.0,77.9 L6804.0,77.9 L6816.0,77.0 L6828.0,76.0 L6840.0,74.1 L6852.0,70.3 L6864.0,66.5 L6876.0,65.5 L6888.0,65.5 L6900.0,65.5 L6912.0,65.5 L6924.0,63.6 L6936.0,63.6 L6948.0,63.6 L6960.0,63.6 L6972.0,66.5 L6984.0,68.4 L6996.0,70.3 L7008.0,71.2 L7020.0,71.2 L7032.0,71.2 L7044.0,71.2 L7056.0,69.3 L7068.0,66.5 L7080.0,64.6 L7092.0,64.6 L7104.0,64.6 L7116.0,64.6 L7128.0,68.4 L7140.0,70.3 L7152.0,72.2 L7164.0,74.1 L7176.0,74.1 L7188.0,74.1 L7200.0,74.1 L7212.0,74.1 L7224.0,77.0 L7236.0,79.9 L7248.0,82.7 L7260.0,83.7 L7272.0,83.7 L7284.0,82.7 L7296.0,79.9 L7308.0,77.9 L7320.0,76.0 L7332.0,71.2 L7344.0,68.4 L7356.0,68.4 L7368.0,68.4 L7380.0,69.3 L7392.0,71.2 L7404.0,73.2 L7416.0,74.1 L7428.0,77.9 L7440.0,82.7 L7452.0,82.7 L7464.0,82.7 L7476.0,81.8 L7488.0,80.8 L7500.0,80.8 L7512.0,80.8 L7524.0,79.9 L7536.0,79.9 L7548.0,79.9 L7560.0,75.1 L7572.0,69.3 L7584.0,65.5 L7596.0,65.5 L7608.0,65.5 L7620.0,65.5 L7632.0,66.5 L7644.0,68.4 L7656.0,68.4 L7668.0,68.4 L7680.0,66.5 L7692.0,65.5 L7704.0,65.5 L7716.0,65.5 L7728.0,64.6 L7740.0,61.7 L7752.0,60.7 L7764.0,60.7 L7776.0,59.8 L7788.0,59.8 L7800.0,59.8 L7812.0,61.7 L7824.0,65.5 L7836.0,66.5 L7848.0,66.5 L7860.0,66.5 L7872.0,66.5 L7884.0,66.5 L7896.0,66.5 L7908.0,66.5 L7920.0,66.5 L7932.0,65.5 L7944.0,59.8 L7956.0,56.9 L7968.0,56.9 L7980.0,56.9 L7992.0,57.9 L8004.0,60.7 L8016.0,61.7 L8028.0,61.7 L8040.0,61.7 L8052.0,61.7 L8064.0,59.8 L8076.0,59.8 L8088.0,59.8 L8100.0,60.7 L8112.0,61.7 L8124.0,62.6 L8136.0,62.6 L8148.0,62.6 L8160.0,62.6 L8172.0,64.6 L8184.0,66.5 L8196.0,68.4 L8208.0,68.4 L8220.0,69.3 L8232.0,72.2 L8244.0,77.9 L8256.0,83.7 L8268.0,86.5 L8280.0,86.5 L8292.0,86.5 L8304.0,85.6 L8316.0,83.7 L8328.0,82.7 L8340.0,80.8 L8352.0,79.9 L8364.0,79.9 L8376.0,79.9 L8388.0,79.9 L8400.0,79.9 L8412.0,80.8 L8424.0,80.8 L8436.0,80.8 L8448.0,80.8 L8460.0,79.9 L8472.0,79.9 L8484.0,79.9 L8496.0,80.8 L8508.0,82.7 L8520.0,82.7 L8532.0,82.7 L8544.0,82.7 L8556.0,82.7 L8568.0,81.8 L8580.0,81.8 L8592.0,81.8 L8604.0,81.8 L8616.0,83.7 L8628.0,84.6 L8640.0,84.6 L8652.0,84.6 L8664.0,78.9 L8676.0,74.1 L8688.0,74.1 L8700.0,74.1 L8712.0,76.0 L8724.0,79.9 L8736.0,82.7 L8748.0,83.7 L8760.0,83.7 L8772.0,83.7 L8784.0,81.8 L8796.0,81.8 L8808.0,79.9 L8820.0,78.9 L8832.0,78.9 L8844.0,78.9 L8856.0,78.9 L8868.0,78.9 L8880.0,78.9 L8892.0,78.9 L8904.0,77.0 L8916.0,77.0 L8928.0,77.0 L8940.0,77.9 L8952.0,80.8 L8964.0,80.8 L8976.0,81.8 L8988.0,82.7 L9000.0,83.7 L9012.0,83.7 L9024.0,83.7 L9036.0,82.7 L9048.0,82.7 L9060.0,82.7 L9072.0,85.6 L9084.0,85.6 L9096.0,86.5 L9108.0,88.5 L9120.0,88.5 L9132.0,90.4 L9144.0,95.1 L9156.0,96.1 L9168.0,96.1 L9180.0,96.1 L9192.0,96.1 L9204.0,94.2 L9216.0,93.2 L9228.0,92.3 L9240.0,92.3 L9252.0,93.2 L9264.0,93.2 L9276.0,92.3 L9288.0,91.3 L9300.0,89.4 L9312.0,89.4 L9324.0,89.4 L9336.0,89.4 L9348.0,91.3 L9360.0,91.3 L9372.0,92.3 L9384.0,95.1 L9396.0,99.9 L9408.0,99.9 L9420.0,99.9 L9432.0,99.9 L9444.0,98.0 L9456.0,97.1 L9468.0,96.1 L9480.0,94.2 L9492.0,93.2 L9504.0,91.3 L9516.0,89.4 L9528.0,88.5 L9540.0,87.5 L9552.0,87.5 L9564.0,87.5 L9576.0,87.5 L9588.0,87.5 L9600.0,88.5 L9612.0,89.4 L9624.0,89.4 L9636.0,88.5 L9648.0,88.5 L9660.0,87.5 L9672.0,87.5 L9684.0,86.5 L9696.0,86.5 L9708.0,84.6 L9720.0,83.7 L9732.0,82.7 L9744.0,81.8 L9756.0,81.8 L9768.0,81.8 L9780.0,83.7 L9792.0,84.6 L9804.0,85.6 L9816.0,86.5 L9828.0,87.5 L9840.0,89.4 L9852.0,89.4 L9864.0,89.4 L9876.0,92.3 L9888.0,95.1 L9900.0,97.1 L9912.0,99.9 L9924.0,100.9 L9936.0,101.8 L9948.0,101.8 L9960.0,101.8 L9972.0,99.9 L9984.0,98.0 L9996.0,98.0 L10008.0,97.1 L10020.0,96.1 L10032.0,95.1 L10044.0,94.2 L10056.0,94.2 L10068.0,95.1 L10080.0,95.1 L10092.0,96.1 L10104.0,98.0 L10116.0,99.0 L10128.0,102.8 L10140.0,108.5 L10152.0,109.5 L10164.0,110.4 L10176.0,110.4 L10188.0,111.4 L10192.0,111.4 L10192.0,300 Z" fill="#6e4632" opacity="0.55"></path>
	</g>
	<g class="mym-mtn-chile">
	<path d="M0.0,300 L0.0,211.8 L12.0,210.8 L24.0,210.8 L36.0,210.8 L48.0,210.8 L60.0,210.8 L72.0,210.8 L84.0,210.8 L96.0,210.8 L108.0,210.8 L120.0,210.8 L132.0,210.8 L144.0,210.8 L156.0,212.7 L168.0,212.7 L180.0,212.7 L192.0,212.7 L204.0,212.7 L216.0,212.7 L228.0,212.7 L240.0,209.8 L252.0,209.8 L264.0,209.8 L276.0,209.8 L288.0,209.8 L300.0,209.8 L312.0,209.8 L324.0,209.8 L336.0,209.8 L348.0,209.8 L360.0,209.8 L372.0,209.8 L384.0,209.8 L396.0,209.8 L408.0,209.8 L420.0,209.8 L432.0,209.8 L444.0,209.8 L456.0,209.8 L468.0,208.9 L480.0,208.9 L492.0,208.9 L504.0,208.9 L516.0,208.9 L528.0,208.9 L540.0,208.9 L552.0,208.9 L564.0,208.9 L576.0,208.9 L588.0,208.9 L600.0,208.9 L612.0,208.9 L624.0,208.9 L636.0,208.9 L648.0,208.9 L660.0,209.8 L672.0,209.8 L684.0,209.8 L696.0,209.8 L708.0,209.8 L720.0,209.8 L732.0,209.8 L744.0,209.8 L756.0,209.8 L768.0,209.8 L780.0,209.8 L792.0,209.8 L804.0,209.8 L816.0,209.8 L828.0,209.8 L840.0,209.8 L852.0,209.8 L864.0,209.8 L876.0,209.8 L888.0,209.8 L900.0,209.8 L912.0,209.8 L924.0,209.8 L936.0,209.8 L948.0,209.8 L960.0,209.8 L972.0,209.8 L984.0,209.8 L996.0,209.8 L1008.0,212.7 L1020.0,228.0 L1032.0,228.0 L1044.0,228.0 L1056.0,228.0 L1068.0,228.0 L1080.0,209.8 L1092.0,209.8 L1104.0,209.8 L1116.0,209.8 L1128.0,209.8 L1140.0,209.8 L1152.0,209.8 L1164.0,209.8 L1176.0,209.8 L1188.0,209.8 L1200.0,209.8 L1212.0,209.8 L1224.0,209.8 L1236.0,209.8 L1248.0,208.9 L1260.0,208.9 L1272.0,208.9 L1284.0,209.8 L1296.0,209.8 L1308.0,209.8 L1320.0,209.8 L1332.0,208.9 L1344.0,208.9 L1356.0,208.9 L1368.0,208.9 L1380.0,208.9 L1392.0,208.9 L1404.0,208.9 L1416.0,208.9 L1428.0,208.9 L1440.0,208.9 L1452.0,208.9 L1464.0,208.9 L1476.0,208.9 L1488.0,208.9 L1500.0,208.9 L1512.0,208.9 L1524.0,208.9 L1536.0,208.9 L1548.0,208.9 L1560.0,207.9 L1572.0,207.9 L1584.0,207.9 L1596.0,207.9 L1608.0,207.9 L1620.0,207.9 L1632.0,207.9 L1644.0,207.9 L1656.0,207.0 L1668.0,207.0 L1680.0,207.0 L1692.0,207.0 L1704.0,206.0 L1716.0,205.1 L1728.0,205.1 L1740.0,205.1 L1752.0,205.1 L1764.0,205.1 L1776.0,205.1 L1788.0,207.0 L1800.0,207.0 L1812.0,207.0 L1824.0,207.0 L1836.0,207.0 L1848.0,205.1 L1860.0,203.1 L1872.0,203.1 L1884.0,203.1 L1896.0,203.1 L1908.0,203.1 L1920.0,202.2 L1932.0,202.2 L1944.0,202.2 L1956.0,203.1 L1968.0,203.1 L1980.0,203.1 L1992.0,204.1 L2004.0,204.1 L2016.0,204.1 L2028.0,203.1 L2040.0,201.2 L2052.0,200.3 L2064.0,200.3 L2076.0,200.3 L2088.0,200.3 L2100.0,200.3 L2112.0,200.3 L2124.0,200.3 L2136.0,200.3 L2148.0,199.3 L2160.0,199.3 L2172.0,197.4 L2184.0,197.4 L2196.0,197.4 L2208.0,196.5 L2220.0,196.5 L2232.0,195.5 L2244.0,195.5 L2256.0,194.5 L2268.0,194.5 L2280.0,192.6 L2292.0,191.7 L2304.0,191.7 L2316.0,190.7 L2328.0,188.8 L2340.0,187.9 L2352.0,186.9 L2364.0,186.9 L2376.0,186.9 L2388.0,186.9 L2400.0,186.9 L2412.0,185.9 L2424.0,185.9 L2436.0,185.9 L2448.0,185.0 L2460.0,185.0 L2472.0,185.0 L2484.0,185.9 L2496.0,185.9 L2508.0,185.9 L2520.0,185.9 L2532.0,185.9 L2544.0,185.9 L2556.0,185.9 L2568.0,185.9 L2580.0,184.0 L2592.0,183.1 L2604.0,183.1 L2616.0,183.1 L2628.0,184.0 L2640.0,184.0 L2652.0,184.0 L2664.0,184.0 L2676.0,184.0 L2688.0,184.0 L2700.0,184.0 L2712.0,184.0 L2724.0,183.1 L2736.0,183.1 L2748.0,183.1 L2760.0,183.1 L2772.0,183.1 L2784.0,184.0 L2796.0,184.0 L2808.0,185.0 L2820.0,185.0 L2832.0,185.0 L2844.0,185.0 L2856.0,185.0 L2868.0,184.0 L2880.0,184.0 L2892.0,184.0 L2904.0,185.0 L2916.0,185.0 L2928.0,185.0 L2940.0,185.0 L2952.0,185.9 L2964.0,185.9 L2976.0,185.9 L2988.0,185.9 L3000.0,185.0 L3012.0,185.0 L3024.0,185.0 L3036.0,185.0 L3048.0,185.0 L3060.0,184.0 L3072.0,184.0 L3084.0,183.1 L3096.0,183.1 L3108.0,182.1 L3120.0,181.2 L3132.0,178.3 L3144.0,175.4 L3156.0,175.4 L3168.0,174.5 L3180.0,174.5 L3192.0,174.5 L3204.0,174.5 L3216.0,174.5 L3228.0,174.5 L3240.0,175.4 L3252.0,178.3 L3264.0,180.2 L3276.0,180.2 L3288.0,180.2 L3300.0,181.2 L3312.0,181.2 L3324.0,181.2 L3336.0,179.3 L3348.0,178.3 L3360.0,178.3 L3372.0,178.3 L3384.0,175.4 L3396.0,171.6 L3408.0,171.6 L3420.0,171.6 L3432.0,170.7 L3444.0,170.7 L3456.0,170.7 L3468.0,168.7 L3480.0,166.8 L3492.0,165.9 L3504.0,164.0 L3516.0,162.0 L3528.0,159.2 L3540.0,156.3 L3552.0,153.4 L3564.0,150.6 L3576.0,147.7 L3588.0,143.9 L3600.0,140.1 L3612.0,137.2 L3624.0,137.2 L3636.0,136.2 L3648.0,133.4 L3660.0,131.5 L3672.0,129.6 L3684.0,127.6 L3696.0,123.8 L3708.0,120.0 L3720.0,116.2 L3732.0,112.3 L3744.0,107.6 L3756.0,107.6 L3768.0,107.6 L3780.0,108.5 L3792.0,113.3 L3804.0,119.0 L3816.0,124.8 L3828.0,128.6 L3840.0,134.3 L3852.0,139.1 L3864.0,142.9 L3876.0,146.8 L3888.0,150.6 L3900.0,153.4 L3912.0,155.4 L3924.0,159.2 L3936.0,161.1 L3948.0,161.1 L3960.0,161.1 L3972.0,161.1 L3984.0,158.2 L3996.0,155.4 L4008.0,151.5 L4020.0,149.6 L4032.0,149.6 L4044.0,150.6 L4056.0,156.3 L4068.0,160.1 L4080.0,163.0 L4092.0,164.9 L4104.0,166.8 L4116.0,168.7 L4128.0,170.7 L4140.0,170.7 L4152.0,171.6 L4164.0,171.6 L4176.0,170.7 L4188.0,171.6 L4200.0,171.6 L4212.0,170.7 L4224.0,170.7 L4236.0,168.7 L4248.0,167.8 L4260.0,167.8 L4272.0,168.7 L4284.0,169.7 L4296.0,170.7 L4308.0,170.7 L4320.0,170.7 L4332.0,170.7 L4344.0,169.7 L4356.0,167.8 L4368.0,165.9 L4380.0,164.9 L4392.0,164.0 L4404.0,162.0 L4416.0,161.1 L4428.0,159.2 L4440.0,157.3 L4452.0,157.3 L4464.0,157.3 L4476.0,157.3 L4488.0,156.3 L4500.0,155.4 L4512.0,155.4 L4524.0,155.4 L4536.0,154.4 L4548.0,154.4 L4560.0,153.4 L4572.0,152.5 L4584.0,150.6 L4596.0,149.6 L4608.0,146.8 L4620.0,143.9 L4632.0,142.0 L4644.0,141.0 L4656.0,139.1 L4668.0,138.2 L4680.0,134.3 L4692.0,132.4 L4704.0,128.6 L4716.0,125.7 L4728.0,122.9 L4740.0,119.0 L4752.0,118.1 L4764.0,116.2 L4776.0,112.3 L4788.0,107.6 L4800.0,103.7 L4812.0,100.9 L4824.0,98.0 L4836.0,95.1 L4848.0,94.2 L4860.0,93.2 L4872.0,93.2 L4884.0,94.2 L4896.0,96.1 L4908.0,97.1 L4920.0,98.0 L4932.0,98.0 L4944.0,98.0 L4956.0,99.0 L4968.0,100.9 L4980.0,102.8 L4992.0,104.7 L5004.0,107.6 L5016.0,111.4 L5028.0,115.2 L5040.0,116.2 L5052.0,120.0 L5064.0,121.0 L5076.0,121.9 L5088.0,121.9 L5100.0,122.9 L5112.0,126.7 L5124.0,127.6 L5136.0,129.6 L5148.0,130.5 L5160.0,132.4 L5172.0,133.4 L5184.0,133.4 L5196.0,133.4 L5208.0,134.3 L5220.0,137.2 L5232.0,139.1 L5244.0,140.1 L5256.0,142.9 L5268.0,144.8 L5280.0,145.8 L5292.0,145.8 L5304.0,146.8 L5316.0,147.7 L5328.0,151.5 L5340.0,151.5 L5352.0,154.4 L5364.0,157.3 L5376.0,157.3 L5388.0,160.1 L5400.0,160.1 L5412.0,160.1 L5424.0,159.2 L5436.0,157.3 L5448.0,157.3 L5460.0,157.3 L5472.0,158.2 L5484.0,159.2 L5496.0,159.2 L5508.0,159.2 L5520.0,159.2 L5532.0,158.2 L5544.0,157.3 L5556.0,157.3 L5568.0,157.3 L5580.0,157.3 L5592.0,157.3 L5604.0,156.3 L5616.0,154.4 L5628.0,153.4 L5640.0,153.4 L5652.0,152.5 L5664.0,154.4 L5676.0,154.4 L5688.0,154.4 L5700.0,154.4 L5712.0,153.4 L5724.0,153.4 L5736.0,154.4 L5748.0,154.4 L5760.0,154.4 L5772.0,154.4 L5784.0,154.4 L5796.0,148.7 L5808.0,144.8 L5820.0,139.1 L5832.0,134.3 L5844.0,130.5 L5856.0,130.5 L5868.0,129.6 L5880.0,128.6 L5892.0,128.6 L5904.0,128.6 L5916.0,128.6 L5928.0,133.4 L5940.0,135.3 L5952.0,138.2 L5964.0,139.1 L5976.0,142.9 L5988.0,145.8 L6000.0,146.8 L6012.0,148.7 L6024.0,148.7 L6036.0,149.6 L6048.0,150.6 L6060.0,149.6 L6072.0,148.7 L6084.0,149.6 L6096.0,149.6 L6108.0,149.6 L6120.0,151.5 L6132.0,153.4 L6144.0,162.0 L6156.0,164.0 L6168.0,159.2 L6180.0,159.2 L6192.0,151.5 L6204.0,148.7 L6216.0,147.7 L6228.0,147.7 L6240.0,148.7 L6252.0,151.5 L6264.0,155.4 L6276.0,155.4 L6288.0,155.4 L6300.0,155.4 L6312.0,153.4 L6324.0,145.8 L6336.0,140.1 L6348.0,140.1 L6360.0,140.1 L6372.0,143.9 L6384.0,144.8 L6396.0,148.7 L6408.0,147.7 L6420.0,149.6 L6432.0,150.6 L6444.0,149.6 L6456.0,148.7 L6468.0,148.7 L6480.0,147.7 L6492.0,146.8 L6504.0,146.8 L6516.0,146.8 L6528.0,146.8 L6540.0,142.0 L6552.0,146.8 L6564.0,146.8 L6576.0,146.8 L6588.0,148.7 L6600.0,148.7 L6612.0,148.7 L6624.0,148.7 L6636.0,148.7 L6648.0,145.8 L6660.0,142.0 L6672.0,141.0 L6684.0,138.2 L6696.0,136.2 L6708.0,131.5 L6720.0,129.6 L6732.0,129.6 L6744.0,129.6 L6756.0,129.6 L6768.0,129.6 L6780.0,128.6 L6792.0,127.6 L6804.0,126.7 L6816.0,126.7 L6828.0,126.7 L6840.0,130.5 L6852.0,133.4 L6864.0,134.3 L6876.0,133.4 L6888.0,134.3 L6900.0,135.3 L6912.0,134.3 L6924.0,134.3 L6936.0,134.3 L6948.0,133.4 L6960.0,132.4 L6972.0,129.6 L6984.0,126.7 L6996.0,125.7 L7008.0,124.8 L7020.0,124.8 L7032.0,124.8 L7044.0,126.7 L7056.0,128.6 L7068.0,129.6 L7080.0,129.6 L7092.0,129.6 L7104.0,130.5 L7116.0,131.5 L7128.0,131.5 L7140.0,131.5 L7152.0,132.4 L7164.0,133.4 L7176.0,133.4 L7188.0,138.2 L7200.0,141.0 L7212.0,142.9 L7224.0,145.8 L7236.0,142.9 L7248.0,141.0 L7260.0,140.1 L7272.0,138.2 L7284.0,138.2 L7296.0,138.2 L7308.0,138.2 L7320.0,138.2 L7332.0,138.2 L7344.0,138.2 L7356.0,138.2 L7368.0,138.2 L7380.0,138.2 L7392.0,140.1 L7404.0,142.0 L7416.0,143.9 L7428.0,143.9 L7440.0,143.9 L7452.0,143.9 L7464.0,141.0 L7476.0,140.1 L7488.0,136.2 L7500.0,133.4 L7512.0,127.6 L7524.0,124.8 L7536.0,124.8 L7548.0,124.8 L7560.0,126.7 L7572.0,127.6 L7584.0,128.6 L7596.0,128.6 L7608.0,128.6 L7620.0,130.5 L7632.0,131.5 L7644.0,131.5 L7656.0,132.4 L7668.0,133.4 L7680.0,134.3 L7692.0,134.3 L7704.0,134.3 L7716.0,133.4 L7728.0,133.4 L7740.0,131.5 L7752.0,129.6 L7764.0,128.6 L7776.0,127.6 L7788.0,127.6 L7800.0,127.6 L7812.0,128.6 L7824.0,128.6 L7836.0,127.6 L7848.0,125.7 L7860.0,125.7 L7872.0,125.7 L7884.0,127.6 L7896.0,130.5 L7908.0,130.5 L7920.0,131.5 L7932.0,131.5 L7944.0,130.5 L7956.0,130.5 L7968.0,128.6 L7980.0,124.8 L7992.0,123.8 L8004.0,123.8 L8016.0,123.8 L8028.0,125.7 L8040.0,126.7 L8052.0,126.7 L8064.0,127.6 L8076.0,127.6 L8088.0,128.6 L8100.0,129.6 L8112.0,132.4 L8124.0,133.4 L8136.0,133.4 L8148.0,133.4 L8160.0,130.5 L8172.0,129.6 L8184.0,129.6 L8196.0,129.6 L8208.0,131.5 L8220.0,132.4 L8232.0,133.4 L8244.0,133.4 L8256.0,133.4 L8268.0,133.4 L8280.0,133.4 L8292.0,134.3 L8304.0,135.3 L8316.0,138.2 L8328.0,142.9 L8340.0,142.9 L8352.0,141.0 L8364.0,141.0 L8376.0,141.0 L8388.0,142.0 L8400.0,142.9 L8412.0,145.8 L8424.0,147.7 L8436.0,146.8 L8448.0,146.8 L8460.0,146.8 L8472.0,146.8 L8484.0,146.8 L8496.0,146.8 L8508.0,147.7 L8520.0,149.6 L8532.0,150.6 L8544.0,144.8 L8556.0,137.2 L8568.0,137.2 L8580.0,137.2 L8592.0,139.1 L8604.0,139.1 L8616.0,140.1 L8628.0,141.0 L8640.0,142.9 L8652.0,143.9 L8664.0,143.9 L8676.0,144.8 L8688.0,144.8 L8700.0,144.8 L8712.0,144.8 L8724.0,141.0 L8736.0,139.1 L8748.0,138.2 L8760.0,138.2 L8772.0,138.2 L8784.0,139.1 L8796.0,139.1 L8808.0,139.1 L8820.0,140.1 L8832.0,140.1 L8844.0,140.1 L8856.0,140.1 L8868.0,141.0 L8880.0,142.9 L8892.0,142.9 L8904.0,143.9 L8916.0,144.8 L8928.0,144.8 L8940.0,144.8 L8952.0,147.7 L8964.0,148.7 L8976.0,148.7 L8988.0,148.7 L9000.0,148.7 L9012.0,147.7 L9024.0,145.8 L9036.0,143.9 L9048.0,142.9 L9060.0,142.9 L9072.0,142.0 L9084.0,142.0 L9096.0,142.0 L9108.0,141.0 L9120.0,140.1 L9132.0,139.1 L9144.0,139.1 L9156.0,139.1 L9168.0,139.1 L9180.0,140.1 L9192.0,140.1 L9204.0,140.1 L9216.0,140.1 L9228.0,138.2 L9240.0,137.2 L9252.0,137.2 L9264.0,138.2 L9276.0,138.2 L9288.0,138.2 L9300.0,138.2 L9312.0,138.2 L9324.0,139.1 L9336.0,141.0 L9348.0,143.9 L9360.0,143.9 L9372.0,143.9 L9384.0,143.9 L9396.0,142.0 L9408.0,139.1 L9420.0,137.2 L9432.0,135.3 L9444.0,134.3 L9456.0,134.3 L9468.0,135.3 L9480.0,141.0 L9492.0,142.0 L9504.0,142.0 L9516.0,142.9 L9528.0,142.9 L9540.0,143.9 L9552.0,143.9 L9564.0,143.9 L9576.0,143.9 L9588.0,143.9 L9600.0,142.9 L9612.0,142.9 L9624.0,142.0 L9636.0,142.0 L9648.0,142.0 L9660.0,138.2 L9672.0,137.2 L9684.0,137.2 L9696.0,137.2 L9708.0,138.2 L9720.0,142.0 L9732.0,142.9 L9744.0,142.9 L9756.0,143.9 L9768.0,144.8 L9780.0,146.8 L9792.0,147.7 L9804.0,147.7 L9816.0,147.7 L9828.0,148.7 L9840.0,148.7 L9852.0,148.7 L9864.0,148.7 L9876.0,148.7 L9888.0,148.7 L9900.0,147.7 L9912.0,145.8 L9924.0,145.8 L9936.0,145.8 L9948.0,144.8 L9960.0,142.9 L9972.0,142.9 L9984.0,142.9 L9996.0,142.9 L10008.0,142.9 L10020.0,142.0 L10032.0,142.0 L10044.0,141.0 L10056.0,139.1 L10068.0,136.2 L10080.0,134.3 L10092.0,130.5 L10104.0,127.6 L10116.0,125.7 L10128.0,123.8 L10140.0,122.9 L10152.0,121.0 L10164.0,120.0 L10176.0,116.2 L10188.0,115.2 L10192.0,115.2 L10192.0,300 Z" fill="#202c25"></path>
	</g>
</svg>
