<svg class="mym-hero-mountains" viewBox="0 0 4197 300" preserveAspectRatio="xMidYMax meet" aria-hidden="true" xmlns="http://www.w3.org/2000/svg">
	<g class="mym-mtn-schweiz">
	<path d="M-96,300 L-96,168.7 L-90,167.8 L-84,165.9 L-78,164.0 L-72,163.0 L-66,163.0 L-60,163.0 L-54,164.0 L-48,165.9 L-42,166.8 L-36,168.7 L-30,169.7 L-24,170.7 L-18,170.7 L-12,169.7 L-6,167.8 L0,165.9 L6,165.9 L12,165.9 L18,165.9 L24,167.8 L30,169.7 L36,170.7 L42,170.7 L48,170.7 L54,170.7 L60,170.7 L66,170.7 L72,170.7 L78,169.7 L84,169.7 L90,169.7 L96,169.7 L102,169.7 L108,169.7 L114,169.7 L120,168.7 L126,167.8 L132,167.8 L138,167.8 L144,167.8 L150,167.8 L156,167.8 L162,168.7 L168,168.7 L174,168.7 L180,168.7 L186,168.7 L192,167.8 L198,167.8 L204,167.8 L210,167.8 L216,167.8 L222,167.8 L228,167.8 L234,167.8 L240,167.8 L246,167.8 L252,167.8 L258,166.8 L264,166.8 L270,165.9 L276,165.9 L282,165.9 L288,165.9 L294,165.9 L300,165.9 L306,165.9 L312,165.9 L318,166.8 L324,166.8 L330,166.8 L336,166.8 L342,167.8 L348,167.8 L354,167.8 L360,168.7 L366,168.7 L372,169.7 L378,169.7 L384,169.7 L390,169.7 L396,168.7 L402,168.7 L408,168.7 L414,168.7 L420,168.7 L426,168.7 L432,169.7 L438,169.7 L444,169.7 L450,169.7 L456,167.8 L462,166.8 L468,166.8 L474,166.8 L480,166.8 L486,165.9 L492,166.8 L498,166.8 L504,167.8 L510,168.7 L516,169.7 L522,171.6 L528,172.6 L534,172.6 L540,172.6 L546,171.6 L552,170.7 L558,169.7 L564,169.7 L570,168.7 L576,168.7 L582,167.8 L588,168.7 L594,168.7 L600,167.8 L606,167.8 L612,167.8 L618,165.9 L624,161.1 L630,159.2 L636,159.2 L642,159.2 L648,159.2 L654,159.2 L660,159.2 L666,159.2 L672,159.2 L678,159.2 L684,159.2 L690,159.2 L696,158.2 L702,157.3 L708,156.3 L714,156.3 L720,156.3 L726,158.2 L732,158.2 L738,158.2 L744,157.3 L750,157.3 L756,157.3 L762,157.3 L768,157.3 L774,155.4 L780,155.4 L786,155.4 L792,155.4 L798,156.3 L804,157.3 L810,157.3 L816,159.2 L822,159.2 L828,160.1 L834,160.1 L840,160.1 L846,160.1 L852,159.2 L858,159.2 L864,158.2 L870,157.3 L876,157.3 L882,156.3 L888,156.3 L894,156.3 L900,154.4 L906,153.4 L912,150.6 L918,148.7 L924,148.7 L930,148.7 L936,146.8 L942,145.8 L948,145.8 L954,145.8 L960,146.8 L966,148.7 L972,148.7 L978,149.6 L984,149.6 L990,149.6 L996,149.6 L1002,149.6 L1008,149.6 L1014,147.7 L1020,145.8 L1026,143.9 L1032,143.9 L1038,143.9 L1044,143.9 L1050,143.9 L1056,144.8 L1062,145.8 L1068,145.8 L1074,145.8 L1080,145.8 L1086,143.9 L1092,141.0 L1098,141.0 L1104,141.0 L1110,141.0 L1116,141.0 L1122,141.0 L1128,142.0 L1134,142.0 L1140,142.0 L1146,142.9 L1152,142.9 L1158,142.9 L1164,143.9 L1170,143.9 L1176,144.8 L1182,144.8 L1188,144.8 L1194,144.8 L1200,145.8 L1206,145.8 L1212,145.8 L1218,144.8 L1224,144.8 L1230,144.8 L1236,143.9 L1242,143.9 L1248,143.9 L1254,143.9 L1260,143.9 L1266,144.8 L1272,145.8 L1278,146.8 L1284,145.8 L1290,144.8 L1296,144.8 L1302,144.8 L1308,144.8 L1314,142.9 L1320,140.1 L1326,140.1 L1332,140.1 L1338,141.0 L1344,141.0 L1350,141.0 L1356,137.2 L1362,132.4 L1368,130.5 L1374,130.5 L1380,130.5 L1386,130.5 L1392,131.5 L1398,132.4 L1404,133.4 L1410,133.4 L1416,133.4 L1422,134.3 L1428,136.2 L1434,137.2 L1440,138.2 L1446,138.2 L1452,139.1 L1458,139.1 L1464,138.2 L1470,138.2 L1476,136.2 L1482,134.3 L1488,134.3 L1494,134.3 L1500,134.3 L1506,135.3 L1512,136.2 L1518,136.2 L1524,136.2 L1530,136.2 L1536,137.2 L1542,137.2 L1548,137.2 L1554,135.3 L1560,134.3 L1566,133.4 L1572,133.4 L1578,132.4 L1584,132.4 L1590,126.7 L1596,124.8 L1602,124.8 L1608,124.8 L1614,124.8 L1620,124.8 L1626,124.8 L1632,125.7 L1638,126.7 L1644,126.7 L1650,129.6 L1656,130.5 L1662,130.5 L1668,130.5 L1674,125.7 L1680,123.8 L1686,123.8 L1692,123.8 L1698,125.7 L1704,125.7 L1710,125.7 L1716,124.8 L1722,123.8 L1728,123.8 L1734,121.0 L1740,118.1 L1746,115.2 L1752,111.4 L1758,107.6 L1764,105.7 L1770,105.7 L1776,106.6 L1782,111.4 L1788,113.3 L1794,113.3 L1800,113.3 L1806,112.3 L1812,110.4 L1818,110.4 L1824,110.4 L1830,115.2 L1836,118.1 L1842,121.0 L1848,122.9 L1854,124.8 L1860,124.8 L1866,124.8 L1872,124.8 L1878,121.9 L1884,119.0 L1890,117.1 L1896,114.3 L1902,111.4 L1908,108.5 L1914,102.8 L1920,98.0 L1926,98.0 L1932,98.0 L1938,101.8 L1944,108.5 L1950,115.2 L1956,117.1 L1962,117.1 L1968,118.1 L1974,118.1 L1980,120.0 L1986,120.0 L1992,120.0 L1998,120.0 L2004,120.0 L2010,120.0 L2016,119.0 L2022,119.0 L2028,119.0 L2034,118.1 L2040,118.1 L2046,117.1 L2052,115.2 L2058,112.3 L2064,103.7 L2070,101.8 L2076,98.0 L2082,96.1 L2088,94.2 L2094,93.2 L2100,87.5 L2106,84.6 L2112,84.6 L2118,84.6 L2124,88.5 L2130,92.3 L2136,92.3 L2142,92.3 L2148,92.3 L2154,91.3 L2160,91.3 L2166,90.4 L2172,89.4 L2178,86.5 L2184,80.8 L2190,80.8 L2196,80.8 L2202,82.7 L2208,88.5 L2214,91.3 L2220,95.1 L2226,99.0 L2232,99.9 L2238,99.9 L2244,99.9 L2250,99.9 L2256,99.0 L2262,98.0 L2268,96.1 L2274,91.3 L2280,87.5 L2286,85.6 L2292,81.8 L2298,80.8 L2304,77.9 L2310,77.0 L2316,77.0 L2322,77.9 L2328,82.7 L2334,85.6 L2340,93.2 L2346,95.1 L2352,95.1 L2358,95.1 L2364,92.3 L2370,89.4 L2376,89.4 L2382,88.5 L2388,88.5 L2394,88.5 L2400,88.5 L2406,88.5 L2412,88.5 L2418,87.5 L2424,87.5 L2430,87.5 L2436,88.5 L2442,88.5 L2448,90.4 L2454,91.3 L2460,91.3 L2466,91.3 L2472,89.4 L2478,88.5 L2484,87.5 L2490,87.5 L2496,87.5 L2502,88.5 L2508,90.4 L2514,91.3 L2520,92.3 L2526,93.2 L2532,95.1 L2538,96.1 L2544,96.1 L2550,96.1 L2556,95.1 L2562,94.2 L2568,94.2 L2574,94.2 L2580,96.1 L2586,98.0 L2592,99.0 L2598,99.0 L2604,99.0 L2610,98.0 L2616,97.1 L2622,97.1 L2628,97.1 L2634,97.1 L2640,95.1 L2646,89.4 L2652,88.5 L2658,87.5 L2664,81.8 L2670,81.8 L2676,81.8 L2682,83.7 L2688,88.5 L2694,88.5 L2700,88.5 L2706,88.5 L2712,88.5 L2718,87.5 L2724,84.6 L2730,80.8 L2736,80.8 L2742,80.8 L2748,79.9 L2754,79.9 L2760,78.9 L2766,77.9 L2772,76.0 L2778,76.0 L2784,76.0 L2790,77.9 L2796,79.9 L2802,79.9 L2808,80.8 L2814,80.8 L2820,80.8 L2826,79.9 L2832,79.9 L2838,77.9 L2844,74.1 L2850,71.2 L2856,71.2 L2862,71.2 L2868,71.2 L2874,71.2 L2880,73.2 L2886,77.0 L2892,79.9 L2898,79.9 L2904,79.9 L2910,77.9 L2916,68.4 L2922,68.4 L2928,68.4 L2934,72.2 L2940,77.0 L2946,77.9 L2952,77.9 L2958,76.0 L2964,63.6 L2970,58.8 L2976,57.9 L2982,57.9 L2988,57.9 L2994,61.7 L3000,61.7 L3006,62.6 L3012,65.5 L3018,69.3 L3024,69.3 L3030,69.3 L3036,69.3 L3042,69.3 L3048,68.4 L3054,68.4 L3060,68.4 L3066,64.6 L3072,61.7 L3078,57.9 L3084,56.0 L3090,56.0 L3096,56.0 L3102,57.9 L3108,57.9 L3114,57.9 L3120,56.9 L3126,56.9 L3132,56.0 L3138,56.0 L3144,56.0 L3150,56.9 L3156,59.8 L3162,61.7 L3168,61.7 L3174,61.7 L3180,56.9 L3186,55.0 L3192,55.0 L3198,55.0 L3204,58.8 L3210,59.8 L3216,60.7 L3222,60.7 L3228,61.7 L3234,61.7 L3240,61.7 L3246,62.6 L3252,62.6 L3258,63.6 L3264,64.6 L3270,65.5 L3276,65.5 L3282,65.5 L3288,65.5 L3294,65.5 L3300,65.5 L3306,65.5 L3312,65.5 L3318,66.5 L3324,68.4 L3330,70.3 L3336,70.3 L3342,70.3 L3348,69.3 L3354,68.4 L3360,68.4 L3366,68.4 L3372,69.3 L3378,72.2 L3384,74.1 L3390,77.0 L3396,77.9 L3402,77.9 L3408,77.0 L3414,76.0 L3420,74.1 L3426,70.3 L3432,66.5 L3438,65.5 L3444,65.5 L3450,65.5 L3456,65.5 L3462,63.6 L3468,63.6 L3474,63.6 L3480,63.6 L3486,66.5 L3492,68.4 L3498,70.3 L3504,71.2 L3510,71.2 L3516,71.2 L3522,71.2 L3528,69.3 L3534,66.5 L3540,64.6 L3546,64.6 L3552,64.6 L3558,64.6 L3564,68.4 L3570,70.3 L3576,72.2 L3582,74.1 L3588,74.1 L3594,74.1 L3600,74.1 L3606,74.1 L3612,77.0 L3618,79.9 L3624,82.7 L3630,83.7 L3636,83.7 L3642,82.7 L3648,79.9 L3654,77.9 L3660,76.0 L3666,71.2 L3672,68.4 L3678,68.4 L3684,68.4 L3690,69.3 L3696,71.2 L3702,73.2 L3708,74.1 L3714,77.9 L3720,82.7 L3726,82.7 L3732,82.7 L3738,81.8 L3744,80.8 L3750,80.8 L3756,80.8 L3762,79.9 L3768,79.9 L3774,79.9 L3780,75.1 L3786,69.3 L3792,65.5 L3798,65.5 L3804,65.5 L3810,65.5 L3816,66.5 L3822,68.4 L3828,68.4 L3834,68.4 L3840,66.5 L3846,65.5 L3852,65.5 L3858,65.5 L3864,64.6 L3870,61.7 L3876,60.7 L3882,60.7 L3888,59.8 L3894,59.8 L3900,59.8 L3906,61.7 L3912,65.5 L3918,66.5 L3924,66.5 L3930,66.5 L3936,66.5 L3942,66.5 L3948,66.5 L3954,66.5 L3960,66.5 L3966,65.5 L3972,59.8 L3978,56.9 L3984,56.9 L3990,56.9 L3996,57.9 L4002,60.7 L4008,61.7 L4014,61.7 L4020,61.7 L4026,61.7 L4032,59.8 L4038,59.8 L4044,59.8 L4050,60.7 L4056,61.7 L4062,62.6 L4068,62.6 L4074,62.6 L4080,62.6 L4086,64.6 L4092,66.5 L4098,68.4 L4104,68.4 L4110,69.3 L4116,72.2 L4122,77.9 L4128,83.7 L4134,86.5 L4140,86.5 L4146,86.5 L4152,85.6 L4158,83.7 L4164,82.7 L4170,80.8 L4176,79.9 L4182,79.9 L4188,79.9 L4194,79.9 L4200,79.9 L4206,80.8 L4212,80.8 L4218,80.8 L4224,80.8 L4230,79.9 L4236,79.9 L4242,79.9 L4248,80.8 L4254,82.7 L4260,82.7 L4266,82.7 L4272,82.7 L4278,82.7 L4284,81.8 L4290,81.8 L4296,81.8 L4302,81.8 L4308,83.7 L4314,84.6 L4320,84.6 L4326,84.6 L4332,78.9 L4338,74.1 L4344,74.1 L4350,74.1 L4356,76.0 L4362,79.9 L4368,82.7 L4374,83.7 L4380,83.7 L4386,83.7 L4392,81.8 L4398,81.8 L4404,79.9 L4410,78.9 L4416,78.9 L4422,78.9 L4428,78.9 L4434,78.9 L4440,78.9 L4446,78.9 L4452,77.0 L4458,77.0 L4464,77.0 L4470,77.9 L4476,80.8 L4482,80.8 L4488,81.8 L4494,82.7 L4500,83.7 L4506,83.7 L4512,83.7 L4518,82.7 L4524,82.7 L4530,82.7 L4536,85.6 L4542,85.6 L4548,86.5 L4554,88.5 L4560,88.5 L4566,90.4 L4572,95.1 L4578,96.1 L4584,96.1 L4590,96.1 L4596,96.1 L4602,94.2 L4608,93.2 L4614,92.3 L4620,92.3 L4626,93.2 L4632,93.2 L4638,92.3 L4644,91.3 L4650,89.4 L4656,89.4 L4662,89.4 L4668,89.4 L4674,91.3 L4680,91.3 L4686,92.3 L4692,95.1 L4698,99.9 L4704,99.9 L4710,99.9 L4716,99.9 L4722,98.0 L4728,97.1 L4734,96.1 L4740,94.2 L4746,93.2 L4752,91.3 L4758,89.4 L4764,88.5 L4770,87.5 L4776,87.5 L4782,87.5 L4788,87.5 L4794,87.5 L4800,88.5 L4806,89.4 L4812,89.4 L4818,88.5 L4824,88.5 L4830,87.5 L4836,87.5 L4842,86.5 L4848,86.5 L4854,84.6 L4860,83.7 L4866,82.7 L4872,81.8 L4878,81.8 L4884,81.8 L4890,83.7 L4896,84.6 L4902,85.6 L4908,86.5 L4914,87.5 L4920,89.4 L4926,89.4 L4932,89.4 L4938,92.3 L4944,95.1 L4950,97.1 L4956,99.9 L4962,100.9 L4968,101.8 L4974,101.8 L4980,101.8 L4986,99.9 L4992,98.0 L4998,98.0 L5004,97.1 L5010,96.1 L5016,95.1 L5022,94.2 L5028,94.2 L5034,95.1 L5040,95.1 L5046,96.1 L5052,98.0 L5058,99.0 L5064,102.8 L5070,108.5 L5076,109.5 L5082,110.4 L5088,110.4 L5094,111.4 L5100,111.4 L5106,112.3 L5112,113.3 L5118,113.3 L5124,113.3 L5130,112.3 L5136,113.3 L5142,113.3 L5148,113.3 L5154,113.3 L5160,113.3 L5166,115.2 L5172,115.2 L5178,117.1 L5184,121.9 L5190,122.9 L5196,123.8 L5196,300 Z" fill="#6e4632" opacity="0.55"></path>
	</g>
	<g class="mym-mtn-chile">
	<path d="M0,300 L0,211.8 L6,210.8 L12,210.8 L18,210.8 L24,210.8 L30,210.8 L36,210.8 L42,210.8 L48,210.8 L54,210.8 L60,210.8 L66,210.8 L72,210.8 L78,212.7 L84,212.7 L90,212.7 L96,212.7 L102,212.7 L108,212.7 L114,212.7 L120,209.8 L126,209.8 L132,209.8 L138,209.8 L144,209.8 L150,209.8 L156,209.8 L162,209.8 L168,209.8 L174,209.8 L180,209.8 L186,209.8 L192,209.8 L198,209.8 L204,209.8 L210,209.8 L216,209.8 L222,209.8 L228,209.8 L234,208.9 L240,208.9 L246,208.9 L252,208.9 L258,208.9 L264,208.9 L270,208.9 L276,208.9 L282,208.9 L288,208.9 L294,208.9 L300,208.9 L306,208.9 L312,208.9 L318,208.9 L324,208.9 L330,209.8 L336,209.8 L342,209.8 L348,209.8 L354,209.8 L360,209.8 L366,209.8 L372,209.8 L378,209.8 L384,209.8 L390,209.8 L396,209.8 L402,209.8 L408,209.8 L414,209.8 L420,209.8 L426,209.8 L432,209.8 L438,209.8 L444,209.8 L450,209.8 L456,209.8 L462,209.8 L468,209.8 L474,209.8 L480,209.8 L486,209.8 L492,209.8 L498,209.8 L504,212.7 L510,228.0 L516,228.0 L522,228.0 L528,228.0 L534,228.0 L540,209.8 L546,209.8 L552,209.8 L558,209.8 L564,209.8 L570,209.8 L576,209.8 L582,209.8 L588,209.8 L594,209.8 L600,209.8 L606,209.8 L612,209.8 L618,209.8 L624,208.9 L630,208.9 L636,208.9 L642,209.8 L648,209.8 L654,209.8 L660,209.8 L666,208.9 L672,208.9 L678,208.9 L684,208.9 L690,208.9 L696,208.9 L702,208.9 L708,208.9 L714,208.9 L720,208.9 L726,208.9 L732,208.9 L738,208.9 L744,208.9 L750,208.9 L756,208.9 L762,208.9 L768,208.9 L774,208.9 L780,207.9 L786,207.9 L792,207.9 L798,207.9 L804,207.9 L810,207.9 L816,207.9 L822,207.9 L828,207.0 L834,207.0 L840,207.0 L846,207.0 L852,206.0 L858,205.1 L864,205.1 L870,205.1 L876,205.1 L882,205.1 L888,205.1 L894,207.0 L900,207.0 L906,207.0 L912,207.0 L918,207.0 L924,205.1 L930,203.1 L936,203.1 L942,203.1 L948,203.1 L954,203.1 L960,202.2 L966,202.2 L972,202.2 L978,203.1 L984,203.1 L990,203.1 L996,204.1 L1002,204.1 L1008,204.1 L1014,203.1 L1020,201.2 L1026,200.3 L1032,200.3 L1038,200.3 L1044,200.3 L1050,200.3 L1056,200.3 L1062,200.3 L1068,200.3 L1074,199.3 L1080,199.3 L1086,197.4 L1092,197.4 L1098,197.4 L1104,196.5 L1110,196.5 L1116,195.5 L1122,195.5 L1128,194.5 L1134,194.5 L1140,192.6 L1146,191.7 L1152,191.7 L1158,190.7 L1164,188.8 L1170,187.9 L1176,186.9 L1182,186.9 L1188,186.9 L1194,186.9 L1200,186.9 L1206,185.9 L1212,185.9 L1218,185.9 L1224,185.0 L1230,185.0 L1236,185.0 L1242,185.9 L1248,185.9 L1254,185.9 L1260,185.9 L1266,185.9 L1272,185.9 L1278,185.9 L1284,185.9 L1290,184.0 L1296,183.1 L1302,183.1 L1308,183.1 L1314,184.0 L1320,184.0 L1326,184.0 L1332,184.0 L1338,184.0 L1344,184.0 L1350,184.0 L1356,184.0 L1362,183.1 L1368,183.1 L1374,183.1 L1380,183.1 L1386,183.1 L1392,184.0 L1398,184.0 L1404,185.0 L1410,185.0 L1416,185.0 L1422,185.0 L1428,185.0 L1434,184.0 L1440,184.0 L1446,184.0 L1452,185.0 L1458,185.0 L1464,185.0 L1470,185.0 L1476,185.9 L1482,185.9 L1488,185.9 L1494,185.9 L1500,185.0 L1506,185.0 L1512,185.0 L1518,185.0 L1524,185.0 L1530,184.0 L1536,184.0 L1542,183.1 L1548,183.1 L1554,182.1 L1560,181.2 L1566,178.3 L1572,175.4 L1578,175.4 L1584,174.5 L1590,174.5 L1596,174.5 L1602,174.5 L1608,174.5 L1614,174.5 L1620,175.4 L1626,178.3 L1632,180.2 L1638,180.2 L1644,180.2 L1650,181.2 L1656,181.2 L1662,181.2 L1668,179.3 L1674,178.3 L1680,178.3 L1686,178.3 L1692,175.4 L1698,171.6 L1704,171.6 L1710,171.6 L1716,170.7 L1722,170.7 L1728,170.7 L1734,168.7 L1740,166.8 L1746,165.9 L1752,164.0 L1758,162.0 L1764,159.2 L1770,156.3 L1776,153.4 L1782,150.6 L1788,147.7 L1794,143.9 L1800,140.1 L1806,137.2 L1812,137.2 L1818,136.2 L1824,133.4 L1830,131.5 L1836,129.6 L1842,127.6 L1848,123.8 L1854,120.0 L1860,116.2 L1866,112.3 L1872,107.6 L1878,107.6 L1884,107.6 L1890,108.5 L1896,113.3 L1902,119.0 L1908,124.8 L1914,128.6 L1920,134.3 L1926,139.1 L1932,142.9 L1938,146.8 L1944,150.6 L1950,153.4 L1956,155.4 L1962,159.2 L1968,161.1 L1974,161.1 L1980,161.1 L1986,161.1 L1992,158.2 L1998,155.4 L2004,151.5 L2010,149.6 L2016,149.6 L2022,150.6 L2028,156.3 L2034,160.1 L2040,163.0 L2046,164.9 L2052,166.8 L2058,168.7 L2064,170.7 L2070,170.7 L2076,171.6 L2082,171.6 L2088,170.7 L2094,171.6 L2100,171.6 L2106,170.7 L2112,170.7 L2118,168.7 L2124,167.8 L2130,167.8 L2136,168.7 L2142,169.7 L2148,170.7 L2154,170.7 L2160,170.7 L2166,170.7 L2172,169.7 L2178,167.8 L2184,165.9 L2190,164.9 L2196,164.0 L2202,162.0 L2208,161.1 L2214,159.2 L2220,157.3 L2226,157.3 L2232,157.3 L2238,157.3 L2244,156.3 L2250,155.4 L2256,155.4 L2262,155.4 L2268,154.4 L2274,154.4 L2280,153.4 L2286,152.5 L2292,150.6 L2298,149.6 L2304,146.8 L2310,143.9 L2316,142.0 L2322,141.0 L2328,139.1 L2334,138.2 L2340,134.3 L2346,132.4 L2352,128.6 L2358,125.7 L2364,122.9 L2370,119.0 L2376,118.1 L2382,116.2 L2388,112.3 L2394,107.6 L2400,103.7 L2406,100.9 L2412,98.0 L2418,95.1 L2424,94.2 L2430,93.2 L2436,93.2 L2442,94.2 L2448,96.1 L2454,97.1 L2460,98.0 L2466,98.0 L2472,98.0 L2478,99.0 L2484,100.9 L2490,102.8 L2496,104.7 L2502,107.6 L2508,111.4 L2514,115.2 L2520,116.2 L2526,120.0 L2532,121.0 L2538,121.9 L2544,121.9 L2550,122.9 L2556,126.7 L2562,127.6 L2568,129.6 L2574,130.5 L2580,132.4 L2586,133.4 L2592,133.4 L2598,133.4 L2604,134.3 L2610,137.2 L2616,139.1 L2622,140.1 L2628,142.9 L2634,144.8 L2640,145.8 L2646,145.8 L2652,146.8 L2658,147.7 L2664,151.5 L2670,151.5 L2676,154.4 L2682,157.3 L2688,157.3 L2694,160.1 L2700,160.1 L2706,160.1 L2712,159.2 L2718,157.3 L2724,157.3 L2730,157.3 L2736,158.2 L2742,159.2 L2748,159.2 L2754,159.2 L2760,159.2 L2766,158.2 L2772,157.3 L2778,157.3 L2784,157.3 L2790,157.3 L2796,157.3 L2802,156.3 L2808,154.4 L2814,153.4 L2820,153.4 L2826,152.5 L2832,154.4 L2838,154.4 L2844,154.4 L2850,154.4 L2856,153.4 L2862,153.4 L2868,154.4 L2874,154.4 L2880,154.4 L2886,154.4 L2892,154.4 L2898,148.7 L2904,144.8 L2910,139.1 L2916,134.3 L2922,130.5 L2928,130.5 L2934,129.6 L2940,128.6 L2946,128.6 L2952,128.6 L2958,128.6 L2964,133.4 L2970,135.3 L2976,138.2 L2982,139.1 L2988,142.9 L2994,145.8 L3000,146.8 L3006,148.7 L3012,148.7 L3018,149.6 L3024,150.6 L3030,149.6 L3036,148.7 L3042,149.6 L3048,149.6 L3054,149.6 L3060,151.5 L3066,153.4 L3072,162.0 L3078,164.0 L3084,159.2 L3090,159.2 L3096,151.5 L3102,148.7 L3108,147.7 L3114,147.7 L3120,148.7 L3126,151.5 L3132,155.4 L3138,155.4 L3144,155.4 L3150,155.4 L3156,153.4 L3162,145.8 L3168,140.1 L3174,140.1 L3180,140.1 L3186,143.9 L3192,144.8 L3198,148.7 L3204,147.7 L3210,149.6 L3216,150.6 L3222,149.6 L3228,148.7 L3234,148.7 L3240,147.7 L3246,146.8 L3252,146.8 L3258,146.8 L3264,146.8 L3270,142.0 L3276,146.8 L3282,146.8 L3288,146.8 L3294,148.7 L3300,148.7 L3306,148.7 L3312,148.7 L3318,148.7 L3324,145.8 L3330,142.0 L3336,141.0 L3342,138.2 L3348,136.2 L3354,131.5 L3360,129.6 L3366,129.6 L3372,129.6 L3378,129.6 L3384,129.6 L3390,128.6 L3396,127.6 L3402,126.7 L3408,126.7 L3414,126.7 L3420,130.5 L3426,133.4 L3432,134.3 L3438,133.4 L3444,134.3 L3450,135.3 L3456,134.3 L3462,134.3 L3468,134.3 L3474,133.4 L3480,132.4 L3486,129.6 L3492,126.7 L3498,125.7 L3504,124.8 L3510,124.8 L3516,124.8 L3522,126.7 L3528,128.6 L3534,129.6 L3540,129.6 L3546,129.6 L3552,130.5 L3558,131.5 L3564,131.5 L3570,131.5 L3576,132.4 L3582,133.4 L3588,133.4 L3594,138.2 L3600,141.0 L3606,142.9 L3612,145.8 L3618,142.9 L3624,141.0 L3630,140.1 L3636,138.2 L3642,138.2 L3648,138.2 L3654,138.2 L3660,138.2 L3666,138.2 L3672,138.2 L3678,138.2 L3684,138.2 L3690,138.2 L3696,140.1 L3702,142.0 L3708,143.9 L3714,143.9 L3720,143.9 L3726,143.9 L3732,141.0 L3738,140.1 L3744,136.2 L3750,133.4 L3756,127.6 L3762,124.8 L3768,124.8 L3774,124.8 L3780,126.7 L3786,127.6 L3792,128.6 L3798,128.6 L3804,128.6 L3810,130.5 L3816,131.5 L3822,131.5 L3828,132.4 L3834,133.4 L3840,134.3 L3846,134.3 L3852,134.3 L3858,133.4 L3864,133.4 L3870,131.5 L3876,129.6 L3882,128.6 L3888,127.6 L3894,127.6 L3900,127.6 L3906,128.6 L3912,128.6 L3918,127.6 L3924,125.7 L3930,125.7 L3936,125.7 L3942,127.6 L3948,130.5 L3954,130.5 L3960,131.5 L3966,131.5 L3972,130.5 L3978,130.5 L3984,128.6 L3990,124.8 L3996,123.8 L4002,123.8 L4008,123.8 L4014,125.7 L4020,126.7 L4026,126.7 L4032,127.6 L4038,127.6 L4044,128.6 L4050,129.6 L4056,132.4 L4062,133.4 L4068,133.4 L4074,133.4 L4080,130.5 L4086,129.6 L4092,129.6 L4098,129.6 L4104,131.5 L4110,132.4 L4116,133.4 L4122,133.4 L4128,133.4 L4134,133.4 L4140,133.4 L4146,134.3 L4152,135.3 L4158,138.2 L4164,142.9 L4170,142.9 L4176,141.0 L4182,141.0 L4188,141.0 L4194,142.0 L4200,142.9 L4206,145.8 L4212,147.7 L4218,146.8 L4224,146.8 L4230,146.8 L4236,146.8 L4242,146.8 L4248,146.8 L4254,147.7 L4260,149.6 L4266,150.6 L4272,144.8 L4278,137.2 L4284,137.2 L4290,137.2 L4296,139.1 L4302,139.1 L4308,140.1 L4314,141.0 L4320,142.9 L4326,143.9 L4332,143.9 L4338,144.8 L4344,144.8 L4350,144.8 L4356,144.8 L4362,141.0 L4368,139.1 L4374,138.2 L4380,138.2 L4386,138.2 L4392,139.1 L4398,139.1 L4404,139.1 L4410,140.1 L4416,140.1 L4422,140.1 L4428,140.1 L4434,141.0 L4440,142.9 L4446,142.9 L4452,143.9 L4458,144.8 L4464,144.8 L4470,144.8 L4476,147.7 L4482,148.7 L4488,148.7 L4494,148.7 L4500,148.7 L4506,147.7 L4512,145.8 L4518,143.9 L4524,142.9 L4530,142.9 L4536,142.0 L4542,142.0 L4548,142.0 L4554,141.0 L4560,140.1 L4566,139.1 L4572,139.1 L4578,139.1 L4584,139.1 L4590,140.1 L4596,140.1 L4602,140.1 L4608,140.1 L4614,138.2 L4620,137.2 L4626,137.2 L4632,138.2 L4638,138.2 L4644,138.2 L4650,138.2 L4656,138.2 L4662,139.1 L4668,141.0 L4674,143.9 L4680,143.9 L4686,143.9 L4692,143.9 L4698,142.0 L4704,139.1 L4710,137.2 L4716,135.3 L4722,134.3 L4728,134.3 L4734,135.3 L4740,141.0 L4746,142.0 L4752,142.0 L4758,142.9 L4764,142.9 L4770,143.9 L4776,143.9 L4782,143.9 L4788,143.9 L4794,143.9 L4800,142.9 L4806,142.9 L4812,142.0 L4818,142.0 L4824,142.0 L4830,138.2 L4836,137.2 L4842,137.2 L4848,137.2 L4854,138.2 L4860,142.0 L4866,142.9 L4872,142.9 L4878,143.9 L4884,144.8 L4890,146.8 L4896,147.7 L4902,147.7 L4908,147.7 L4914,148.7 L4920,148.7 L4926,148.7 L4932,148.7 L4938,148.7 L4944,148.7 L4950,147.7 L4956,145.8 L4962,145.8 L4968,145.8 L4974,144.8 L4980,142.9 L4986,142.9 L4992,142.9 L4998,142.9 L5004,142.9 L5010,142.0 L5016,142.0 L5022,141.0 L5028,139.1 L5034,136.2 L5040,134.3 L5046,130.5 L5052,127.6 L5058,125.7 L5064,123.8 L5070,122.9 L5076,121.0 L5082,120.0 L5088,116.2 L5094,115.2 L5100,115.2 L5106,116.2 L5112,117.1 L5118,118.1 L5124,118.1 L5130,119.0 L5136,119.0 L5142,120.0 L5148,163.0 L5154,167.8 L5160,118.1 L5166,120.0 L5172,121.9 L5178,121.9 L5184,121.9 L5190,123.8 L5196,127.6 L5196,300 Z" fill="#202c25"></path>
	</g>
</svg>
